<?xml version="1.0" encoding="utf-8"?><svg viewBox="0 0 128 32" xmlns="http://www.w3.org/2000/svg" xmlns:xlink="http://www.w3.org/1999/xlink"><style>:root>svg{display:none}:root>svg:target{display:block}</style><svg fill="none" viewBox="0 0 32 32" id="black-circle" xmlns="http://www.w3.org/2000/svg"><g clip-path="url(#ba)" stroke="#000" stroke-width="12.583" stroke-linecap="round" stroke-linejoin="round"><path d="M16 5.514c5.791 0 10.486 4.695 10.486 10.486S21.791 26.486 16 26.486 5.514 21.791 5.514 16 10.209 5.514 16 5.514Zm2.422 6.292 6.02 10.423M13.578 11.806h12.038M11.155 16l6.02-10.423m-3.597 14.617L7.558 9.771m10.864 10.424H6.384M20.845 16l-6.02 10.423"/></g><defs><clipPath id="ba"><path fill="#fff" d="M0 0h32v32H0z"/></clipPath></defs></svg><svg fill="none" viewBox="0 0 12 24" id="facebook" xmlns="http://www.w3.org/2000/svg"><path d="M11.625 7.771H7.79v-2.49c0-.936.628-1.155 1.068-1.155h2.7V.014L7.835 0c-4.13 0-5.068 3.067-5.068 5.031v2.74H.375v4.236h2.39V24h5.028V12.01h3.392l.44-4.239Z" fill="silver"/></svg><svg fill="none" viewBox="0 0 24 24" id="instagram" xmlns="http://www.w3.org/2000/svg"><path d="M12 5.768A6.239 6.239 0 0 0 5.768 12 6.237 6.237 0 0 0 12 18.23 6.236 6.236 0 0 0 18.23 12 6.235 6.235 0 0 0 12 5.768Zm0 10.086A3.857 3.857 0 0 1 8.146 12 3.857 3.857 0 0 1 12 8.146 3.857 3.857 0 0 1 15.854 12 3.857 3.857 0 0 1 12 15.854ZM17.094 0H6.906A6.915 6.915 0 0 0 0 6.906v10.188A6.915 6.915 0 0 0 6.906 24h10.188A6.915 6.915 0 0 0 24 17.094V6.906A6.914 6.914 0 0 0 17.094 0Zm4.53 17.094a4.535 4.535 0 0 1-4.53 4.528H6.906a4.533 4.533 0 0 1-4.528-4.528V6.906a4.533 4.533 0 0 1 4.528-4.528h10.188a4.533 4.533 0 0 1 4.528 4.528v10.188h.002ZM18.317 3.968c-.898 0-1.631.73-1.631 1.63 0 .898.73 1.631 1.63 1.631.899 0 1.631-.73 1.631-1.63 0-.9-.732-1.631-1.63-1.631Z" fill="silver"/></svg><svg fill="none" viewBox="0 0 32 16" id="iso" xmlns="http://www.w3.org/2000/svg"><path fill-rule="evenodd" clip-rule="evenodd" d="M28.9 0C30.611 0 32 1.4 32 3.125v9.75C32 14.601 30.612 16 28.9 16H3.1C1.389 16 0 14.6 0 12.875v-9.75C0 1.399 1.388 0 3.1 0h25.8ZM12.71 2.911c-.679 0-1.282.116-1.81.35-.528.232-.938.567-1.23 1.004-.292.437-.438.95-.438 1.539 0 .627.143 1.128.43 1.503a2.74 2.74 0 0 0 1.033.84c.4.186.921.374 1.563.564.47.133.84.254 1.11.363.268.11.492.259.671.449.18.19.269.432.269.727 0 .36-.132.653-.396.876-.264.223-.627.335-1.089.335-.452 0-.808-.119-1.068-.356-.248-.228-.39-.535-.427-.92l-.004-.05h-2.12v.066c.02.58.185 1.086.494 1.516.32.447.757.789 1.308 1.026.552.238 1.171.357 1.86.357.725 0 1.352-.136 1.88-.406.528-.271.928-.635 1.202-1.09.273-.456.41-.95.41-1.482 0-.618-.146-1.117-.438-1.497a2.823 2.823 0 0 0-1.047-.855c-.405-.19-.928-.38-1.57-.57a11.673 11.673 0 0 1-1.095-.377 1.994 1.994 0 0 1-.65-.428.902.902 0 0 1-.262-.662c0-.38.116-.67.346-.87.231-.2.54-.299.927-.299.443 0 .798.112 1.067.335.258.214.4.482.428.805l.003.043h2.178l-.005-.06c-.077-.865-.427-1.54-1.049-2.028-.636-.499-1.463-.748-2.481-.748Zm10.684 0c-.924 0-1.772.219-2.545.655a4.874 4.874 0 0 0-1.838 1.817c-.453.775-.679 1.646-.679 2.615 0 .979.226 1.855.679 2.63a4.875 4.875 0 0 0 1.838 1.816 5.082 5.082 0 0 0 2.545.656c.924 0 1.772-.219 2.545-.656a4.823 4.823 0 0 0 1.831-1.817c.448-.774.672-1.65.672-2.629 0-.969-.224-1.84-.672-2.615a4.836 4.836 0 0 0-1.824-1.817 5.07 5.07 0 0 0-2.552-.655Zm-16.632.143h-1.98V13h1.98V3.053Zm16.632 1.653c.594 0 1.117.133 1.57.399.452.266.806.648 1.06 1.147.255.498.382 1.08.382 1.745s-.127 1.25-.382 1.753c-.254.504-.608.89-1.06 1.161-.453.271-.976.406-1.57.406-.594 0-1.12-.135-1.576-.406a2.762 2.762 0 0 1-1.068-1.161c-.254-.503-.382-1.088-.382-1.753 0-.665.128-1.247.382-1.745.255-.5.61-.881 1.068-1.147.457-.266.982-.4 1.576-.4Z" fill="#fff"/></svg><svg fill="none" viewBox="0 0 16 16" id="light" xmlns="http://www.w3.org/2000/svg"><path fill-rule="evenodd" clip-rule="evenodd" d="m4.64 10.596 7.383 4.29A7.774 7.774 0 0 1 8 16a7.6 7.6 0 0 1-3.36-.758v-4.646ZM4.046 6.4v8.533c-2.224-1.232-3.763-3.532-4-6.21l4-2.323ZM16 7.94v.071a7.91 7.91 0 0 1-3.408 6.519l-4-2.3L16 7.94Zm-4.047-6.873c2.225 1.232 3.763 3.532 4 6.21l-4 2.323V1.067Zm-8.545.403 4 2.299L0 8.036v-.024A7.922 7.922 0 0 1 3.408 1.47ZM8 0c1.207 0 2.344.26 3.361.759V5.38L3.977 1.09A7.987 7.987 0 0 1 8 0Z" fill="#fff"/></svg><svg fill="none" viewBox="0 0 10 16" id="map" xmlns="http://www.w3.org/2000/svg"><path fill-rule="evenodd" clip-rule="evenodd" d="M5 6.445c-.962 0-1.74-.745-1.74-1.664 0-.918.778-1.662 1.74-1.662.96 0 1.738.744 1.738 1.662 0 .92-.778 1.664-1.738 1.664ZM5 0C2.239 0 0 2.14 0 4.78c0 1.928 2.659 7.691 4.1 10.67.353.733 1.444.733 1.8 0C7.34 12.47 10 6.708 10 4.78 10 2.14 7.761 0 5 0Z" fill="#fff"/></svg><svg fill="none" viewBox="0 0 16 16" id="shutter" xmlns="http://www.w3.org/2000/svg"><path fill-rule="evenodd" clip-rule="evenodd" d="M8.373 0c.065 0 .117.052.117.117v.122a.117.117 0 0 1-.117.117h-.134v.395a7.625 7.625 0 0 1 7.386 7.622 7.626 7.626 0 1 1-15.25 0A7.626 7.626 0 0 1 7.761.751V.356h-.134A.117.117 0 0 1 7.51.24V.117c0-.065.052-.117.117-.117h.746ZM8.19 1.75v.67a.191.191 0 1 1-.382 0v-.67a6.624 6.624 0 0 0-6.43 6.432h.669a.191.191 0 0 1 0 .382h-.67a6.625 6.625 0 0 0 6.43 6.432v-.67a.191.191 0 1 1 .383 0v.67a6.624 6.624 0 0 0 6.43-6.432h-.669a.191.191 0 0 1 0-.382h.67a6.623 6.623 0 0 0-6.43-6.431ZM8 8.018a.356.356 0 0 1 .35.415l2.266 2.05c.058.053.1.12.121.196l.03.111a.077.077 0 0 1-.086.096l-.114-.019a.412.412 0 0 1-.207-.1l-2.266-2.05A.356.356 0 1 1 8 8.018Z" fill="#fff"/></svg><svg fill="none" viewBox="0 0 24 20" id="twitter" xmlns="http://www.w3.org/2000/svg"><path d="M24 2.557a9.882 9.882 0 0 1-2.828.776A4.931 4.931 0 0 0 23.336.609a9.9 9.9 0 0 1-3.126 1.196A4.913 4.913 0 0 0 16.617.25a4.923 4.923 0 0 0-4.926 4.923c0 .387.044.762.127 1.122A13.968 13.968 0 0 1 1.67 1.15a4.919 4.919 0 0 0-.666 2.476c0 1.709.87 3.215 2.188 4.098a4.876 4.876 0 0 1-2.23-.617v.063a4.926 4.926 0 0 0 3.95 4.827 4.918 4.918 0 0 1-2.222.085 4.929 4.929 0 0 0 4.597 3.42 9.873 9.873 0 0 1-6.113 2.106A9.78 9.78 0 0 1 0 17.539a13.946 13.946 0 0 0 7.547 2.211c9.056 0 14.01-7.501 14.01-14.007 0-.213-.006-.425-.014-.636A10.011 10.011 0 0 0 24 2.557Z" fill="silver"/></svg><svg fill="none" viewBox="0 0 128 31" id="vg" xmlns="http://www.w3.org/2000/svg"><path fill-rule="evenodd" clip-rule="evenodd" d="M31.254 4.155c1.514 0 2.884.38 4.11 1.136 1.227.76 2.198 1.834 2.912 3.23.715 1.395 1.072 3.013 1.072 4.852 0 1.84-.357 3.469-1.072 4.886-.714 1.417-1.685 2.516-2.911 3.295-1.227.779-2.597 1.168-4.111 1.168-1.301 0-2.448-.27-3.44-.811-.991-.541-1.796-1.223-2.415-2.045V31H20.92V4.447h4.48v2.597c.575-.82 1.37-1.51 2.383-2.062 1.013-.552 2.17-.827 3.47-.827Zm17.82 0c1.685 0 3.194.367 4.527 1.103a7.712 7.712 0 0 1 3.103 3.133c.736 1.352 1.104 2.905 1.104 4.658 0 .65-.042 1.233-.128 1.753H44.723c.107 1.298.555 2.315 1.344 3.051.789.736 1.76 1.104 2.911 1.104 1.664 0 2.847-.725 3.551-2.175h4.831c-.512 1.731-1.493 3.154-2.943 4.269-1.45 1.117-3.232 1.671-5.343 1.671-1.706 0-3.237-.384-4.591-1.152-1.354-.768-2.41-1.856-3.167-3.262-.758-1.407-1.136-3.03-1.136-4.87 0-1.858.373-3.492 1.12-4.901.746-1.407 1.791-2.486 3.135-3.246 1.344-.755 2.89-1.136 4.639-1.136Zm70.192 0c1.685 0 3.194.367 4.527 1.103a7.712 7.712 0 0 1 3.103 3.133c.736 1.352 1.104 2.905 1.104 4.658 0 .65-.043 1.233-.128 1.753h-12.957c.106 1.298.554 2.315 1.344 3.051.789.736 1.759 1.104 2.911 1.104 1.664 0 2.847-.725 3.551-2.175h4.831c-.512 1.731-1.493 3.154-2.943 4.269-1.451 1.117-3.232 1.671-5.343 1.671-1.706 0-3.237-.384-4.591-1.152-1.355-.768-2.41-1.856-3.167-3.262-.758-1.407-1.136-3.03-1.136-4.87 0-1.858.373-3.492 1.12-4.901.746-1.407 1.791-2.486 3.135-3.246 1.344-.755 2.89-1.136 4.639-1.136ZM4.426 16.333l8.238 4.842c-.32.27-.693.514-1.093.73-1.013.541-2.186.812-3.52.812-1.306 0-2.532-.298-3.625-.92v-5.464ZM86.248 4.447v9.901c0 1.428.352 2.527 1.056 3.295.704.768 1.664 1.152 2.88 1.152 1.237 0 2.207-.384 2.911-1.152.704-.768 1.056-1.867 1.056-3.295v-9.9h4.51V22.43h-4.51v-2.272c-.576.779-1.328 1.39-2.256 1.834a6.918 6.918 0 0 1-3.023.665c-1.386 0-2.613-.297-3.68-.892-1.066-.596-1.903-1.472-2.51-2.63-.609-1.158-.913-2.537-.913-4.139V4.447h4.48ZM69.07 4.188V8.96h-1.184c-1.408 0-2.469.335-3.183 1.006-.715.671-1.072 1.84-1.072 3.506v8.96h-4.48V4.447h4.48v2.791A6.341 6.341 0 0 1 65.886 5c.928-.54 1.99-.811 3.184-.811Zm41.366 0V8.96h-1.184c-1.408 0-2.469.335-3.183 1.006-.715.671-1.072 1.84-1.072 3.506v8.96h-4.479V4.447h4.479v2.791A6.347 6.347 0 0 1 107.252 5c.928-.54 1.989-.811 3.184-.811ZM76.652 0v4.447h3.968V8.18h-3.968v8.7c0 .606.144 1.044.432 1.315.288.27.773.405 1.456.405h2.08v3.83h-2.816c-3.775 0-5.663-1.86-5.663-5.583V8.18H70.03V4.447h2.111V0h4.511ZM18.45 12.572v9.847h-4.505v-2.624a4.72 4.72 0 0 1-.747.892l-4.319-2.515 9.571-5.6ZM3.76 11.517v9.873c-1.12-.757-2.026-1.785-2.693-3.138C.4 16.927.053 15.412 0 13.708l3.76-2.191Zm26.311-3.37c-.81 0-1.573.211-2.287.633-.715.422-1.29 1.034-1.728 1.834-.437.801-.656 1.742-.656 2.824 0 1.082.219 2.027.656 2.825.437.8 1.013 1.412 1.728 1.834a4.424 4.424 0 0 0 2.287.633c.832 0 1.605-.217 2.32-.65.714-.432 1.29-1.05 1.727-1.85.438-.8.656-1.753.656-2.857 0-1.082-.219-2.018-.656-2.807-.437-.79-1.013-1.39-1.727-1.802a4.572 4.572 0 0 0-2.32-.617ZM18.45 4.457v7.33l-5.786 3.382V5.7c.507.379.934.812 1.28 1.298V4.457h4.506ZM3.093 5.917l4.452 2.598-7.518 4.409c.026-1.65.373-3.11 1.04-4.382a8.675 8.675 0 0 1 2.026-2.624Zm45.853 1.97c-1.11 0-2.042.341-2.8 1.023-.757.682-1.22 1.629-1.391 2.84h8.414c-.021-1.168-.437-2.104-1.248-2.807-.81-.704-1.802-1.055-2.975-1.055Zm70.192 0c-1.109 0-2.042.341-2.799 1.023-.758.682-1.222 1.629-1.392 2.84h8.414c-.021-1.168-.437-2.104-1.248-2.807-.81-.704-1.802-1.055-2.975-1.055ZM8.104 4.16c1.307 0 2.453.27 3.466.812.134.081.294.162.427.27v5.113l-8.292-4.87c.08-.08.187-.134.267-.188 1.226-.758 2.613-1.137 4.132-1.137Z" fill="#fff"/></svg></svg>